%
M48
M72
T01C0.01400
T02C0.04000
%
T01
X87595Y48933
X112595Y56433
X107595Y78933
X107595Y93933
X102595Y93933
X107595Y103933
X107595Y113933
X117595Y103933
X127595Y88933
X127595Y78933
X137595Y78933
X147595Y88933
X137595Y108933
X122595Y118933
X147595Y138933
X147595Y153933
X162595Y183933
X162595Y208933
X171595Y221433
X169595Y240183
X188845Y240183
X213845Y247683
X228845Y230433
X228845Y208933
X215345Y178933
X202345Y155433
X223845Y118933
X238845Y108933
X218845Y103933
X208845Y103933
X208845Y93933
X203845Y93933
X208845Y78933
X228845Y78933
X228845Y88933
X238845Y78933
X248845Y88933
X243845Y64933
X213845Y56433
X188845Y48933
X169595Y48933
X142595Y64933
X208845Y113933
X248845Y138933
X248845Y153933
X263845Y183933
X263845Y208933
X272845Y221433
X270845Y240183
X290095Y240183
X315095Y247683
X330095Y230433
X330095Y208933
X316595Y178933
X303595Y155433
X325095Y118933
X310095Y113933
X310095Y103933
X310095Y93933
X305095Y93933
X310095Y78933
X330095Y78933
X330095Y88933
X340095Y78933
X350095Y88933
X340095Y108933
X320095Y103933
X350095Y138933
X350095Y153933
X365095Y183933
X365095Y208933
X374095Y221433
X372095Y240183
X345095Y256183
X340095Y270183
X330095Y270183
X330095Y280183
X320095Y295183
X310095Y295183
X310095Y285183
X305095Y285183
X310095Y270183
X340095Y300183
X325095Y310183
X310095Y305183
X303595Y346683
X316595Y370183
X330095Y400183
X330095Y421683
X365095Y400183
X374095Y412683
X365095Y375183
X350095Y345183
X350095Y330183
X350095Y280183
X263845Y375183
X263845Y400183
X272845Y412683
X228845Y421683
X228845Y400183
X215345Y370183
X202345Y346683
X223845Y310183
X218845Y295183
X208845Y295183
X208845Y285183
X203845Y285183
X208845Y270183
X228845Y270183
X228845Y280183
X238845Y270183
X248845Y280183
X238845Y300183
X248845Y330183
X248845Y345183
X208845Y305183
X243845Y256183
X147595Y280183
X137595Y270183
X127595Y270183
X127595Y280183
X117595Y295183
X107595Y295183
X107595Y285183
X102595Y285183
X107595Y270183
X112595Y247683
X127595Y230433
X127595Y208933
X114095Y178933
X101095Y155433
X87595Y240183
X142595Y256183
X137595Y300183
X122595Y310183
X107595Y305183
X101095Y346683
X114095Y370183
X127595Y400183
X127595Y421683
X162595Y400183
X171595Y412683
X162595Y375183
X147595Y345183
X147595Y330183
X345095Y64933
X372095Y48933
X315095Y56433
X290095Y48933
X270845Y48933
T02
X92595Y58933
X92595Y68933
X92595Y78933
X92595Y88933
X92595Y98933
X92595Y108933
X82595Y103933
X82595Y93933
X82595Y83933
X82595Y73933
X82595Y113933
X92595Y118933
X92595Y128933
X92595Y138933
X92595Y148933
X92595Y158933
X92595Y168933
X82595Y163933
X82595Y153933
X82595Y143933
X82595Y133933
X82595Y123933
X82595Y173933
X82595Y183933
X82595Y193933
X82595Y203933
X82595Y213933
X86895Y228433
X98295Y228433
X92595Y250183
X92595Y260183
X92595Y270183
X92595Y280183
X82595Y275183
X82595Y265183
X82595Y285183
X82595Y295183
X82595Y305183
X82595Y315183
X82595Y325183
X82595Y335183
X82595Y345183
X82595Y355183
X82595Y365183
X82595Y375183
X82595Y385183
X82595Y395183
X82595Y405183
X86895Y419683
X98295Y419683
X92595Y360183
X92595Y350183
X92595Y340183
X92595Y330183
X92595Y320183
X92595Y310183
X92595Y300183
X92595Y290183
X156895Y228433
X168295Y228433
X188145Y228433
X199545Y228433
X183845Y213933
X172595Y213933
X172595Y203933
X172595Y193933
X172595Y183933
X172595Y173933
X172595Y163933
X172595Y153933
X172595Y143933
X172595Y133933
X172595Y123933
X183845Y123933
X183845Y133933
X183845Y143933
X183845Y153933
X183845Y163933
X183845Y173933
X183845Y183933
X183845Y193933
X183845Y203933
X193845Y168933
X193845Y158933
X193845Y148933
X193845Y138933
X193845Y128933
X193845Y118933
X193845Y108933
X193845Y98933
X193845Y88933
X193845Y78933
X193845Y68933
X193845Y58933
X183845Y73933
X183845Y83933
X183845Y93933
X183845Y103933
X183845Y113933
X172595Y113933
X172595Y103933
X172595Y93933
X172595Y83933
X172595Y73933
X162595Y68933
X162595Y58933
X162595Y78933
X162595Y88933
X162595Y98933
X162595Y108933
X162595Y118933
X162595Y128933
X162595Y138933
X162595Y148933
X162595Y158933
X162595Y168933
X162595Y250183
X162595Y260183
X162595Y270183
X162595Y280183
X162595Y290183
X162595Y300183
X162595Y310183
X162595Y320183
X162595Y330183
X162595Y340183
X162595Y350183
X162595Y360183
X172595Y355183
X172595Y345183
X172595Y335183
X172595Y325183
X172595Y315183
X172595Y305183
X172595Y295183
X172595Y285183
X183845Y285183
X183845Y295183
X183845Y305183
X183845Y315183
X183845Y325183
X183845Y335183
X183845Y345183
X183845Y355183
X183845Y365183
X183845Y375183
X172595Y375183
X172595Y365183
X172595Y385183
X172595Y395183
X172595Y405183
X183845Y405183
X183845Y395183
X183845Y385183
X193845Y360183
X193845Y350183
X193845Y340183
X193845Y330183
X193845Y320183
X193845Y310183
X193845Y300183
X193845Y290183
X193845Y280183
X193845Y270183
X193845Y260183
X193845Y250183
X183845Y265183
X183845Y275183
X172595Y275183
X172595Y265183
X258145Y228433
X269545Y228433
X263845Y250183
X263845Y260183
X263845Y270183
X263845Y280183
X273845Y275183
X273845Y265183
X285095Y265183
X285095Y275183
X295095Y270183
X295095Y260183
X295095Y250183
X289395Y228433
X300795Y228433
X285095Y213933
X285095Y203933
X285095Y193933
X285095Y183933
X285095Y173933
X285095Y163933
X285095Y153933
X285095Y143933
X285095Y133933
X285095Y123933
X295095Y118933
X295095Y128933
X295095Y138933
X295095Y148933
X295095Y158933
X295095Y168933
X273845Y163933
X273845Y153933
X273845Y143933
X273845Y133933
X273845Y123933
X263845Y118933
X263845Y128933
X263845Y138933
X263845Y148933
X263845Y158933
X263845Y168933
X273845Y173933
X273845Y183933
X273845Y193933
X273845Y203933
X273845Y213933
X295095Y280183
X285095Y285183
X285095Y295183
X285095Y305183
X285095Y315183
X285095Y325183
X285095Y335183
X285095Y345183
X285095Y355183
X285095Y365183
X285095Y375183
X285095Y385183
X285095Y395183
X285095Y405183
X273845Y405183
X273845Y395183
X273845Y385183
X273845Y375183
X273845Y365183
X273845Y355183
X273845Y345183
X273845Y335183
X273845Y325183
X273845Y315183
X273845Y305183
X273845Y295183
X273845Y285183
X263845Y290183
X263845Y300183
X263845Y310183
X263845Y320183
X263845Y330183
X263845Y340183
X263845Y350183
X263845Y360183
X295095Y360183
X295095Y350183
X295095Y340183
X295095Y330183
X295095Y320183
X295095Y310183
X295095Y300183
X295095Y290183
X359395Y228433
X370795Y228433
X375095Y213933
X375095Y203933
X375095Y193933
X375095Y183933
X375095Y173933
X375095Y163933
X375095Y153933
X375095Y143933
X375095Y133933
X375095Y123933
X365095Y118933
X365095Y128933
X365095Y138933
X365095Y148933
X365095Y158933
X365095Y168933
X375095Y113933
X375095Y103933
X375095Y93933
X375095Y83933
X375095Y73933
X365095Y68933
X365095Y58933
X365095Y78933
X365095Y88933
X365095Y98933
X365095Y108933
X295095Y108933
X295095Y98933
X295095Y88933
X295095Y78933
X295095Y68933
X295095Y58933
X285095Y73933
X285095Y83933
X285095Y93933
X285095Y103933
X285095Y113933
X273845Y113933
X273845Y103933
X273845Y93933
X273845Y83933
X273845Y73933
X263845Y68933
X263845Y58933
X263845Y78933
X263845Y88933
X263845Y98933
X263845Y108933
X365095Y250183
X365095Y260183
X365095Y270183
X365095Y280183
X375095Y275183
X375095Y265183
X375095Y285183
X375095Y295183
X375095Y305183
X375095Y315183
X375095Y325183
X375095Y335183
X375095Y345183
X375095Y355183
X375095Y365183
X375095Y375183
X375095Y385183
X375095Y395183
X375095Y405183
X370795Y419683
X359395Y419683
X300795Y419683
X289395Y419683
X269545Y419683
X258145Y419683
X199545Y419683
X188145Y419683
X168295Y419683
X156895Y419683
X365095Y360183
X365095Y350183
X365095Y340183
X365095Y330183
X365095Y320183
X365095Y310183
X365095Y300183
X365095Y290183
M30
