G75*
%MOIN*%
%OFA0B0*%
%FSLAX25Y25*%
%IPPOS*%
%LPD*%
%AMOC8*
5,1,8,0,0,1.08239X$1,22.5*
%
%ADD10C,0.00000*%
%ADD11C,0.07800*%
%ADD12R,0.04400X0.04900*%
%ADD13C,0.00887*%
D10*
X0077595Y0048933D02*
X0077595Y0228933D01*
X0077597Y0229073D01*
X0077603Y0229213D01*
X0077613Y0229353D01*
X0077626Y0229493D01*
X0077644Y0229632D01*
X0077666Y0229771D01*
X0077691Y0229908D01*
X0077720Y0230046D01*
X0077753Y0230182D01*
X0077790Y0230317D01*
X0077831Y0230451D01*
X0077876Y0230584D01*
X0077924Y0230716D01*
X0077976Y0230846D01*
X0078031Y0230975D01*
X0078090Y0231102D01*
X0078153Y0231228D01*
X0078219Y0231352D01*
X0078288Y0231473D01*
X0078361Y0231593D01*
X0078438Y0231711D01*
X0078517Y0231826D01*
X0078600Y0231940D01*
X0078686Y0232050D01*
X0078775Y0232159D01*
X0078867Y0232265D01*
X0078962Y0232368D01*
X0079059Y0232469D01*
X0079160Y0232566D01*
X0079263Y0232661D01*
X0079369Y0232753D01*
X0079478Y0232842D01*
X0079588Y0232928D01*
X0079702Y0233011D01*
X0079817Y0233090D01*
X0079935Y0233167D01*
X0080055Y0233240D01*
X0080176Y0233309D01*
X0080300Y0233375D01*
X0080426Y0233438D01*
X0080553Y0233497D01*
X0080682Y0233552D01*
X0080812Y0233604D01*
X0080944Y0233652D01*
X0081077Y0233697D01*
X0081211Y0233738D01*
X0081346Y0233775D01*
X0081482Y0233808D01*
X0081620Y0233837D01*
X0081757Y0233862D01*
X0081896Y0233884D01*
X0082035Y0233902D01*
X0082175Y0233915D01*
X0082315Y0233925D01*
X0082455Y0233931D01*
X0082595Y0233933D01*
X0082595Y0235183D01*
X0082455Y0235185D01*
X0082315Y0235191D01*
X0082175Y0235201D01*
X0082035Y0235214D01*
X0081896Y0235232D01*
X0081757Y0235254D01*
X0081620Y0235279D01*
X0081482Y0235308D01*
X0081346Y0235341D01*
X0081211Y0235378D01*
X0081077Y0235419D01*
X0080944Y0235464D01*
X0080812Y0235512D01*
X0080682Y0235564D01*
X0080553Y0235619D01*
X0080426Y0235678D01*
X0080300Y0235741D01*
X0080176Y0235807D01*
X0080055Y0235876D01*
X0079935Y0235949D01*
X0079817Y0236026D01*
X0079702Y0236105D01*
X0079588Y0236188D01*
X0079478Y0236274D01*
X0079369Y0236363D01*
X0079263Y0236455D01*
X0079160Y0236550D01*
X0079059Y0236647D01*
X0078962Y0236748D01*
X0078867Y0236851D01*
X0078775Y0236957D01*
X0078686Y0237066D01*
X0078600Y0237176D01*
X0078517Y0237290D01*
X0078438Y0237405D01*
X0078361Y0237523D01*
X0078288Y0237643D01*
X0078219Y0237764D01*
X0078153Y0237888D01*
X0078090Y0238014D01*
X0078031Y0238141D01*
X0077976Y0238270D01*
X0077924Y0238400D01*
X0077876Y0238532D01*
X0077831Y0238665D01*
X0077790Y0238799D01*
X0077753Y0238934D01*
X0077720Y0239070D01*
X0077691Y0239208D01*
X0077666Y0239345D01*
X0077644Y0239484D01*
X0077626Y0239623D01*
X0077613Y0239763D01*
X0077603Y0239903D01*
X0077597Y0240043D01*
X0077595Y0240183D01*
X0077595Y0420183D01*
X0077597Y0420323D01*
X0077603Y0420463D01*
X0077613Y0420603D01*
X0077626Y0420743D01*
X0077644Y0420882D01*
X0077666Y0421021D01*
X0077691Y0421158D01*
X0077720Y0421296D01*
X0077753Y0421432D01*
X0077790Y0421567D01*
X0077831Y0421701D01*
X0077876Y0421834D01*
X0077924Y0421966D01*
X0077976Y0422096D01*
X0078031Y0422225D01*
X0078090Y0422352D01*
X0078153Y0422478D01*
X0078219Y0422602D01*
X0078288Y0422723D01*
X0078361Y0422843D01*
X0078438Y0422961D01*
X0078517Y0423076D01*
X0078600Y0423190D01*
X0078686Y0423300D01*
X0078775Y0423409D01*
X0078867Y0423515D01*
X0078962Y0423618D01*
X0079059Y0423719D01*
X0079160Y0423816D01*
X0079263Y0423911D01*
X0079369Y0424003D01*
X0079478Y0424092D01*
X0079588Y0424178D01*
X0079702Y0424261D01*
X0079817Y0424340D01*
X0079935Y0424417D01*
X0080055Y0424490D01*
X0080176Y0424559D01*
X0080300Y0424625D01*
X0080426Y0424688D01*
X0080553Y0424747D01*
X0080682Y0424802D01*
X0080812Y0424854D01*
X0080944Y0424902D01*
X0081077Y0424947D01*
X0081211Y0424988D01*
X0081346Y0425025D01*
X0081482Y0425058D01*
X0081620Y0425087D01*
X0081757Y0425112D01*
X0081896Y0425134D01*
X0082035Y0425152D01*
X0082175Y0425165D01*
X0082315Y0425175D01*
X0082455Y0425181D01*
X0082595Y0425183D01*
X0172595Y0425183D01*
X0172735Y0425181D01*
X0172875Y0425175D01*
X0173015Y0425165D01*
X0173155Y0425152D01*
X0173294Y0425134D01*
X0173433Y0425112D01*
X0173570Y0425087D01*
X0173708Y0425058D01*
X0173844Y0425025D01*
X0173979Y0424988D01*
X0174113Y0424947D01*
X0174246Y0424902D01*
X0174378Y0424854D01*
X0174508Y0424802D01*
X0174637Y0424747D01*
X0174764Y0424688D01*
X0174890Y0424625D01*
X0175014Y0424559D01*
X0175135Y0424490D01*
X0175255Y0424417D01*
X0175373Y0424340D01*
X0175488Y0424261D01*
X0175602Y0424178D01*
X0175712Y0424092D01*
X0175821Y0424003D01*
X0175927Y0423911D01*
X0176030Y0423816D01*
X0176131Y0423719D01*
X0176228Y0423618D01*
X0176323Y0423515D01*
X0176415Y0423409D01*
X0176504Y0423300D01*
X0176590Y0423190D01*
X0176673Y0423076D01*
X0176752Y0422961D01*
X0176829Y0422843D01*
X0176902Y0422723D01*
X0176971Y0422602D01*
X0177037Y0422478D01*
X0177100Y0422352D01*
X0177159Y0422225D01*
X0177214Y0422096D01*
X0177266Y0421966D01*
X0177314Y0421834D01*
X0177359Y0421701D01*
X0177400Y0421567D01*
X0177437Y0421432D01*
X0177470Y0421296D01*
X0177499Y0421158D01*
X0177524Y0421021D01*
X0177546Y0420882D01*
X0177564Y0420743D01*
X0177577Y0420603D01*
X0177587Y0420463D01*
X0177593Y0420323D01*
X0177595Y0420183D01*
X0178845Y0420183D01*
X0178847Y0420323D01*
X0178853Y0420463D01*
X0178863Y0420603D01*
X0178876Y0420743D01*
X0178894Y0420882D01*
X0178916Y0421021D01*
X0178941Y0421158D01*
X0178970Y0421296D01*
X0179003Y0421432D01*
X0179040Y0421567D01*
X0179081Y0421701D01*
X0179126Y0421834D01*
X0179174Y0421966D01*
X0179226Y0422096D01*
X0179281Y0422225D01*
X0179340Y0422352D01*
X0179403Y0422478D01*
X0179469Y0422602D01*
X0179538Y0422723D01*
X0179611Y0422843D01*
X0179688Y0422961D01*
X0179767Y0423076D01*
X0179850Y0423190D01*
X0179936Y0423300D01*
X0180025Y0423409D01*
X0180117Y0423515D01*
X0180212Y0423618D01*
X0180309Y0423719D01*
X0180410Y0423816D01*
X0180513Y0423911D01*
X0180619Y0424003D01*
X0180728Y0424092D01*
X0180838Y0424178D01*
X0180952Y0424261D01*
X0181067Y0424340D01*
X0181185Y0424417D01*
X0181305Y0424490D01*
X0181426Y0424559D01*
X0181550Y0424625D01*
X0181676Y0424688D01*
X0181803Y0424747D01*
X0181932Y0424802D01*
X0182062Y0424854D01*
X0182194Y0424902D01*
X0182327Y0424947D01*
X0182461Y0424988D01*
X0182596Y0425025D01*
X0182732Y0425058D01*
X0182870Y0425087D01*
X0183007Y0425112D01*
X0183146Y0425134D01*
X0183285Y0425152D01*
X0183425Y0425165D01*
X0183565Y0425175D01*
X0183705Y0425181D01*
X0183845Y0425183D01*
X0273845Y0425183D01*
X0273985Y0425181D01*
X0274125Y0425175D01*
X0274265Y0425165D01*
X0274405Y0425152D01*
X0274544Y0425134D01*
X0274683Y0425112D01*
X0274820Y0425087D01*
X0274958Y0425058D01*
X0275094Y0425025D01*
X0275229Y0424988D01*
X0275363Y0424947D01*
X0275496Y0424902D01*
X0275628Y0424854D01*
X0275758Y0424802D01*
X0275887Y0424747D01*
X0276014Y0424688D01*
X0276140Y0424625D01*
X0276264Y0424559D01*
X0276385Y0424490D01*
X0276505Y0424417D01*
X0276623Y0424340D01*
X0276738Y0424261D01*
X0276852Y0424178D01*
X0276962Y0424092D01*
X0277071Y0424003D01*
X0277177Y0423911D01*
X0277280Y0423816D01*
X0277381Y0423719D01*
X0277478Y0423618D01*
X0277573Y0423515D01*
X0277665Y0423409D01*
X0277754Y0423300D01*
X0277840Y0423190D01*
X0277923Y0423076D01*
X0278002Y0422961D01*
X0278079Y0422843D01*
X0278152Y0422723D01*
X0278221Y0422602D01*
X0278287Y0422478D01*
X0278350Y0422352D01*
X0278409Y0422225D01*
X0278464Y0422096D01*
X0278516Y0421966D01*
X0278564Y0421834D01*
X0278609Y0421701D01*
X0278650Y0421567D01*
X0278687Y0421432D01*
X0278720Y0421296D01*
X0278749Y0421158D01*
X0278774Y0421021D01*
X0278796Y0420882D01*
X0278814Y0420743D01*
X0278827Y0420603D01*
X0278837Y0420463D01*
X0278843Y0420323D01*
X0278845Y0420183D01*
X0280095Y0420183D01*
X0280097Y0420323D01*
X0280103Y0420463D01*
X0280113Y0420603D01*
X0280126Y0420743D01*
X0280144Y0420882D01*
X0280166Y0421021D01*
X0280191Y0421158D01*
X0280220Y0421296D01*
X0280253Y0421432D01*
X0280290Y0421567D01*
X0280331Y0421701D01*
X0280376Y0421834D01*
X0280424Y0421966D01*
X0280476Y0422096D01*
X0280531Y0422225D01*
X0280590Y0422352D01*
X0280653Y0422478D01*
X0280719Y0422602D01*
X0280788Y0422723D01*
X0280861Y0422843D01*
X0280938Y0422961D01*
X0281017Y0423076D01*
X0281100Y0423190D01*
X0281186Y0423300D01*
X0281275Y0423409D01*
X0281367Y0423515D01*
X0281462Y0423618D01*
X0281559Y0423719D01*
X0281660Y0423816D01*
X0281763Y0423911D01*
X0281869Y0424003D01*
X0281978Y0424092D01*
X0282088Y0424178D01*
X0282202Y0424261D01*
X0282317Y0424340D01*
X0282435Y0424417D01*
X0282555Y0424490D01*
X0282676Y0424559D01*
X0282800Y0424625D01*
X0282926Y0424688D01*
X0283053Y0424747D01*
X0283182Y0424802D01*
X0283312Y0424854D01*
X0283444Y0424902D01*
X0283577Y0424947D01*
X0283711Y0424988D01*
X0283846Y0425025D01*
X0283982Y0425058D01*
X0284120Y0425087D01*
X0284257Y0425112D01*
X0284396Y0425134D01*
X0284535Y0425152D01*
X0284675Y0425165D01*
X0284815Y0425175D01*
X0284955Y0425181D01*
X0285095Y0425183D01*
X0375095Y0425183D01*
X0375235Y0425181D01*
X0375375Y0425175D01*
X0375515Y0425165D01*
X0375655Y0425152D01*
X0375794Y0425134D01*
X0375933Y0425112D01*
X0376070Y0425087D01*
X0376208Y0425058D01*
X0376344Y0425025D01*
X0376479Y0424988D01*
X0376613Y0424947D01*
X0376746Y0424902D01*
X0376878Y0424854D01*
X0377008Y0424802D01*
X0377137Y0424747D01*
X0377264Y0424688D01*
X0377390Y0424625D01*
X0377514Y0424559D01*
X0377635Y0424490D01*
X0377755Y0424417D01*
X0377873Y0424340D01*
X0377988Y0424261D01*
X0378102Y0424178D01*
X0378212Y0424092D01*
X0378321Y0424003D01*
X0378427Y0423911D01*
X0378530Y0423816D01*
X0378631Y0423719D01*
X0378728Y0423618D01*
X0378823Y0423515D01*
X0378915Y0423409D01*
X0379004Y0423300D01*
X0379090Y0423190D01*
X0379173Y0423076D01*
X0379252Y0422961D01*
X0379329Y0422843D01*
X0379402Y0422723D01*
X0379471Y0422602D01*
X0379537Y0422478D01*
X0379600Y0422352D01*
X0379659Y0422225D01*
X0379714Y0422096D01*
X0379766Y0421966D01*
X0379814Y0421834D01*
X0379859Y0421701D01*
X0379900Y0421567D01*
X0379937Y0421432D01*
X0379970Y0421296D01*
X0379999Y0421158D01*
X0380024Y0421021D01*
X0380046Y0420882D01*
X0380064Y0420743D01*
X0380077Y0420603D01*
X0380087Y0420463D01*
X0380093Y0420323D01*
X0380095Y0420183D01*
X0380095Y0240183D01*
X0380093Y0240043D01*
X0380087Y0239903D01*
X0380077Y0239763D01*
X0380064Y0239623D01*
X0380046Y0239484D01*
X0380024Y0239345D01*
X0379999Y0239208D01*
X0379970Y0239070D01*
X0379937Y0238934D01*
X0379900Y0238799D01*
X0379859Y0238665D01*
X0379814Y0238532D01*
X0379766Y0238400D01*
X0379714Y0238270D01*
X0379659Y0238141D01*
X0379600Y0238014D01*
X0379537Y0237888D01*
X0379471Y0237764D01*
X0379402Y0237643D01*
X0379329Y0237523D01*
X0379252Y0237405D01*
X0379173Y0237290D01*
X0379090Y0237176D01*
X0379004Y0237066D01*
X0378915Y0236957D01*
X0378823Y0236851D01*
X0378728Y0236748D01*
X0378631Y0236647D01*
X0378530Y0236550D01*
X0378427Y0236455D01*
X0378321Y0236363D01*
X0378212Y0236274D01*
X0378102Y0236188D01*
X0377988Y0236105D01*
X0377873Y0236026D01*
X0377755Y0235949D01*
X0377635Y0235876D01*
X0377514Y0235807D01*
X0377390Y0235741D01*
X0377264Y0235678D01*
X0377137Y0235619D01*
X0377008Y0235564D01*
X0376878Y0235512D01*
X0376746Y0235464D01*
X0376613Y0235419D01*
X0376479Y0235378D01*
X0376344Y0235341D01*
X0376208Y0235308D01*
X0376070Y0235279D01*
X0375933Y0235254D01*
X0375794Y0235232D01*
X0375655Y0235214D01*
X0375515Y0235201D01*
X0375375Y0235191D01*
X0375235Y0235185D01*
X0375095Y0235183D01*
X0375095Y0233933D01*
X0375235Y0233931D01*
X0375375Y0233925D01*
X0375515Y0233915D01*
X0375655Y0233902D01*
X0375794Y0233884D01*
X0375933Y0233862D01*
X0376070Y0233837D01*
X0376208Y0233808D01*
X0376344Y0233775D01*
X0376479Y0233738D01*
X0376613Y0233697D01*
X0376746Y0233652D01*
X0376878Y0233604D01*
X0377008Y0233552D01*
X0377137Y0233497D01*
X0377264Y0233438D01*
X0377390Y0233375D01*
X0377514Y0233309D01*
X0377635Y0233240D01*
X0377755Y0233167D01*
X0377873Y0233090D01*
X0377988Y0233011D01*
X0378102Y0232928D01*
X0378212Y0232842D01*
X0378321Y0232753D01*
X0378427Y0232661D01*
X0378530Y0232566D01*
X0378631Y0232469D01*
X0378728Y0232368D01*
X0378823Y0232265D01*
X0378915Y0232159D01*
X0379004Y0232050D01*
X0379090Y0231940D01*
X0379173Y0231826D01*
X0379252Y0231711D01*
X0379329Y0231593D01*
X0379402Y0231473D01*
X0379471Y0231352D01*
X0379537Y0231228D01*
X0379600Y0231102D01*
X0379659Y0230975D01*
X0379714Y0230846D01*
X0379766Y0230716D01*
X0379814Y0230584D01*
X0379859Y0230451D01*
X0379900Y0230317D01*
X0379937Y0230182D01*
X0379970Y0230046D01*
X0379999Y0229908D01*
X0380024Y0229771D01*
X0380046Y0229632D01*
X0380064Y0229493D01*
X0380077Y0229353D01*
X0380087Y0229213D01*
X0380093Y0229073D01*
X0380095Y0228933D01*
X0380095Y0048933D01*
X0380093Y0048793D01*
X0380087Y0048653D01*
X0380077Y0048513D01*
X0380064Y0048373D01*
X0380046Y0048234D01*
X0380024Y0048095D01*
X0379999Y0047958D01*
X0379970Y0047820D01*
X0379937Y0047684D01*
X0379900Y0047549D01*
X0379859Y0047415D01*
X0379814Y0047282D01*
X0379766Y0047150D01*
X0379714Y0047020D01*
X0379659Y0046891D01*
X0379600Y0046764D01*
X0379537Y0046638D01*
X0379471Y0046514D01*
X0379402Y0046393D01*
X0379329Y0046273D01*
X0379252Y0046155D01*
X0379173Y0046040D01*
X0379090Y0045926D01*
X0379004Y0045816D01*
X0378915Y0045707D01*
X0378823Y0045601D01*
X0378728Y0045498D01*
X0378631Y0045397D01*
X0378530Y0045300D01*
X0378427Y0045205D01*
X0378321Y0045113D01*
X0378212Y0045024D01*
X0378102Y0044938D01*
X0377988Y0044855D01*
X0377873Y0044776D01*
X0377755Y0044699D01*
X0377635Y0044626D01*
X0377514Y0044557D01*
X0377390Y0044491D01*
X0377264Y0044428D01*
X0377137Y0044369D01*
X0377008Y0044314D01*
X0376878Y0044262D01*
X0376746Y0044214D01*
X0376613Y0044169D01*
X0376479Y0044128D01*
X0376344Y0044091D01*
X0376208Y0044058D01*
X0376070Y0044029D01*
X0375933Y0044004D01*
X0375794Y0043982D01*
X0375655Y0043964D01*
X0375515Y0043951D01*
X0375375Y0043941D01*
X0375235Y0043935D01*
X0375095Y0043933D01*
X0285095Y0043933D01*
X0284955Y0043935D01*
X0284815Y0043941D01*
X0284675Y0043951D01*
X0284535Y0043964D01*
X0284396Y0043982D01*
X0284257Y0044004D01*
X0284120Y0044029D01*
X0283982Y0044058D01*
X0283846Y0044091D01*
X0283711Y0044128D01*
X0283577Y0044169D01*
X0283444Y0044214D01*
X0283312Y0044262D01*
X0283182Y0044314D01*
X0283053Y0044369D01*
X0282926Y0044428D01*
X0282800Y0044491D01*
X0282676Y0044557D01*
X0282555Y0044626D01*
X0282435Y0044699D01*
X0282317Y0044776D01*
X0282202Y0044855D01*
X0282088Y0044938D01*
X0281978Y0045024D01*
X0281869Y0045113D01*
X0281763Y0045205D01*
X0281660Y0045300D01*
X0281559Y0045397D01*
X0281462Y0045498D01*
X0281367Y0045601D01*
X0281275Y0045707D01*
X0281186Y0045816D01*
X0281100Y0045926D01*
X0281017Y0046040D01*
X0280938Y0046155D01*
X0280861Y0046273D01*
X0280788Y0046393D01*
X0280719Y0046514D01*
X0280653Y0046638D01*
X0280590Y0046764D01*
X0280531Y0046891D01*
X0280476Y0047020D01*
X0280424Y0047150D01*
X0280376Y0047282D01*
X0280331Y0047415D01*
X0280290Y0047549D01*
X0280253Y0047684D01*
X0280220Y0047820D01*
X0280191Y0047958D01*
X0280166Y0048095D01*
X0280144Y0048234D01*
X0280126Y0048373D01*
X0280113Y0048513D01*
X0280103Y0048653D01*
X0280097Y0048793D01*
X0280095Y0048933D01*
X0278845Y0048933D01*
X0278843Y0048793D01*
X0278837Y0048653D01*
X0278827Y0048513D01*
X0278814Y0048373D01*
X0278796Y0048234D01*
X0278774Y0048095D01*
X0278749Y0047958D01*
X0278720Y0047820D01*
X0278687Y0047684D01*
X0278650Y0047549D01*
X0278609Y0047415D01*
X0278564Y0047282D01*
X0278516Y0047150D01*
X0278464Y0047020D01*
X0278409Y0046891D01*
X0278350Y0046764D01*
X0278287Y0046638D01*
X0278221Y0046514D01*
X0278152Y0046393D01*
X0278079Y0046273D01*
X0278002Y0046155D01*
X0277923Y0046040D01*
X0277840Y0045926D01*
X0277754Y0045816D01*
X0277665Y0045707D01*
X0277573Y0045601D01*
X0277478Y0045498D01*
X0277381Y0045397D01*
X0277280Y0045300D01*
X0277177Y0045205D01*
X0277071Y0045113D01*
X0276962Y0045024D01*
X0276852Y0044938D01*
X0276738Y0044855D01*
X0276623Y0044776D01*
X0276505Y0044699D01*
X0276385Y0044626D01*
X0276264Y0044557D01*
X0276140Y0044491D01*
X0276014Y0044428D01*
X0275887Y0044369D01*
X0275758Y0044314D01*
X0275628Y0044262D01*
X0275496Y0044214D01*
X0275363Y0044169D01*
X0275229Y0044128D01*
X0275094Y0044091D01*
X0274958Y0044058D01*
X0274820Y0044029D01*
X0274683Y0044004D01*
X0274544Y0043982D01*
X0274405Y0043964D01*
X0274265Y0043951D01*
X0274125Y0043941D01*
X0273985Y0043935D01*
X0273845Y0043933D01*
X0183845Y0043933D01*
X0183705Y0043935D01*
X0183565Y0043941D01*
X0183425Y0043951D01*
X0183285Y0043964D01*
X0183146Y0043982D01*
X0183007Y0044004D01*
X0182870Y0044029D01*
X0182732Y0044058D01*
X0182596Y0044091D01*
X0182461Y0044128D01*
X0182327Y0044169D01*
X0182194Y0044214D01*
X0182062Y0044262D01*
X0181932Y0044314D01*
X0181803Y0044369D01*
X0181676Y0044428D01*
X0181550Y0044491D01*
X0181426Y0044557D01*
X0181305Y0044626D01*
X0181185Y0044699D01*
X0181067Y0044776D01*
X0180952Y0044855D01*
X0180838Y0044938D01*
X0180728Y0045024D01*
X0180619Y0045113D01*
X0180513Y0045205D01*
X0180410Y0045300D01*
X0180309Y0045397D01*
X0180212Y0045498D01*
X0180117Y0045601D01*
X0180025Y0045707D01*
X0179936Y0045816D01*
X0179850Y0045926D01*
X0179767Y0046040D01*
X0179688Y0046155D01*
X0179611Y0046273D01*
X0179538Y0046393D01*
X0179469Y0046514D01*
X0179403Y0046638D01*
X0179340Y0046764D01*
X0179281Y0046891D01*
X0179226Y0047020D01*
X0179174Y0047150D01*
X0179126Y0047282D01*
X0179081Y0047415D01*
X0179040Y0047549D01*
X0179003Y0047684D01*
X0178970Y0047820D01*
X0178941Y0047958D01*
X0178916Y0048095D01*
X0178894Y0048234D01*
X0178876Y0048373D01*
X0178863Y0048513D01*
X0178853Y0048653D01*
X0178847Y0048793D01*
X0178845Y0048933D01*
X0177595Y0048933D01*
X0177593Y0048793D01*
X0177587Y0048653D01*
X0177577Y0048513D01*
X0177564Y0048373D01*
X0177546Y0048234D01*
X0177524Y0048095D01*
X0177499Y0047958D01*
X0177470Y0047820D01*
X0177437Y0047684D01*
X0177400Y0047549D01*
X0177359Y0047415D01*
X0177314Y0047282D01*
X0177266Y0047150D01*
X0177214Y0047020D01*
X0177159Y0046891D01*
X0177100Y0046764D01*
X0177037Y0046638D01*
X0176971Y0046514D01*
X0176902Y0046393D01*
X0176829Y0046273D01*
X0176752Y0046155D01*
X0176673Y0046040D01*
X0176590Y0045926D01*
X0176504Y0045816D01*
X0176415Y0045707D01*
X0176323Y0045601D01*
X0176228Y0045498D01*
X0176131Y0045397D01*
X0176030Y0045300D01*
X0175927Y0045205D01*
X0175821Y0045113D01*
X0175712Y0045024D01*
X0175602Y0044938D01*
X0175488Y0044855D01*
X0175373Y0044776D01*
X0175255Y0044699D01*
X0175135Y0044626D01*
X0175014Y0044557D01*
X0174890Y0044491D01*
X0174764Y0044428D01*
X0174637Y0044369D01*
X0174508Y0044314D01*
X0174378Y0044262D01*
X0174246Y0044214D01*
X0174113Y0044169D01*
X0173979Y0044128D01*
X0173844Y0044091D01*
X0173708Y0044058D01*
X0173570Y0044029D01*
X0173433Y0044004D01*
X0173294Y0043982D01*
X0173155Y0043964D01*
X0173015Y0043951D01*
X0172875Y0043941D01*
X0172735Y0043935D01*
X0172595Y0043933D01*
X0082595Y0043933D01*
X0082455Y0043935D01*
X0082315Y0043941D01*
X0082175Y0043951D01*
X0082035Y0043964D01*
X0081896Y0043982D01*
X0081757Y0044004D01*
X0081620Y0044029D01*
X0081482Y0044058D01*
X0081346Y0044091D01*
X0081211Y0044128D01*
X0081077Y0044169D01*
X0080944Y0044214D01*
X0080812Y0044262D01*
X0080682Y0044314D01*
X0080553Y0044369D01*
X0080426Y0044428D01*
X0080300Y0044491D01*
X0080176Y0044557D01*
X0080055Y0044626D01*
X0079935Y0044699D01*
X0079817Y0044776D01*
X0079702Y0044855D01*
X0079588Y0044938D01*
X0079478Y0045024D01*
X0079369Y0045113D01*
X0079263Y0045205D01*
X0079160Y0045300D01*
X0079059Y0045397D01*
X0078962Y0045498D01*
X0078867Y0045601D01*
X0078775Y0045707D01*
X0078686Y0045816D01*
X0078600Y0045926D01*
X0078517Y0046040D01*
X0078438Y0046155D01*
X0078361Y0046273D01*
X0078288Y0046393D01*
X0078219Y0046514D01*
X0078153Y0046638D01*
X0078090Y0046764D01*
X0078031Y0046891D01*
X0077976Y0047020D01*
X0077924Y0047150D01*
X0077876Y0047282D01*
X0077831Y0047415D01*
X0077790Y0047549D01*
X0077753Y0047684D01*
X0077720Y0047820D01*
X0077691Y0047958D01*
X0077666Y0048095D01*
X0077644Y0048234D01*
X0077626Y0048373D01*
X0077613Y0048513D01*
X0077603Y0048653D01*
X0077597Y0048793D01*
X0077595Y0048933D01*
X0177595Y0228933D02*
X0177593Y0229073D01*
X0177587Y0229213D01*
X0177577Y0229353D01*
X0177564Y0229493D01*
X0177546Y0229632D01*
X0177524Y0229771D01*
X0177499Y0229908D01*
X0177470Y0230046D01*
X0177437Y0230182D01*
X0177400Y0230317D01*
X0177359Y0230451D01*
X0177314Y0230584D01*
X0177266Y0230716D01*
X0177214Y0230846D01*
X0177159Y0230975D01*
X0177100Y0231102D01*
X0177037Y0231228D01*
X0176971Y0231352D01*
X0176902Y0231473D01*
X0176829Y0231593D01*
X0176752Y0231711D01*
X0176673Y0231826D01*
X0176590Y0231940D01*
X0176504Y0232050D01*
X0176415Y0232159D01*
X0176323Y0232265D01*
X0176228Y0232368D01*
X0176131Y0232469D01*
X0176030Y0232566D01*
X0175927Y0232661D01*
X0175821Y0232753D01*
X0175712Y0232842D01*
X0175602Y0232928D01*
X0175488Y0233011D01*
X0175373Y0233090D01*
X0175255Y0233167D01*
X0175135Y0233240D01*
X0175014Y0233309D01*
X0174890Y0233375D01*
X0174764Y0233438D01*
X0174637Y0233497D01*
X0174508Y0233552D01*
X0174378Y0233604D01*
X0174246Y0233652D01*
X0174113Y0233697D01*
X0173979Y0233738D01*
X0173844Y0233775D01*
X0173708Y0233808D01*
X0173570Y0233837D01*
X0173433Y0233862D01*
X0173294Y0233884D01*
X0173155Y0233902D01*
X0173015Y0233915D01*
X0172875Y0233925D01*
X0172735Y0233931D01*
X0172595Y0233933D01*
X0172595Y0235183D01*
X0172735Y0235185D01*
X0172875Y0235191D01*
X0173015Y0235201D01*
X0173155Y0235214D01*
X0173294Y0235232D01*
X0173433Y0235254D01*
X0173570Y0235279D01*
X0173708Y0235308D01*
X0173844Y0235341D01*
X0173979Y0235378D01*
X0174113Y0235419D01*
X0174246Y0235464D01*
X0174378Y0235512D01*
X0174508Y0235564D01*
X0174637Y0235619D01*
X0174764Y0235678D01*
X0174890Y0235741D01*
X0175014Y0235807D01*
X0175135Y0235876D01*
X0175255Y0235949D01*
X0175373Y0236026D01*
X0175488Y0236105D01*
X0175602Y0236188D01*
X0175712Y0236274D01*
X0175821Y0236363D01*
X0175927Y0236455D01*
X0176030Y0236550D01*
X0176131Y0236647D01*
X0176228Y0236748D01*
X0176323Y0236851D01*
X0176415Y0236957D01*
X0176504Y0237066D01*
X0176590Y0237176D01*
X0176673Y0237290D01*
X0176752Y0237405D01*
X0176829Y0237523D01*
X0176902Y0237643D01*
X0176971Y0237764D01*
X0177037Y0237888D01*
X0177100Y0238014D01*
X0177159Y0238141D01*
X0177214Y0238270D01*
X0177266Y0238400D01*
X0177314Y0238532D01*
X0177359Y0238665D01*
X0177400Y0238799D01*
X0177437Y0238934D01*
X0177470Y0239070D01*
X0177499Y0239208D01*
X0177524Y0239345D01*
X0177546Y0239484D01*
X0177564Y0239623D01*
X0177577Y0239763D01*
X0177587Y0239903D01*
X0177593Y0240043D01*
X0177595Y0240183D01*
X0178845Y0240183D01*
X0178847Y0240043D01*
X0178853Y0239903D01*
X0178863Y0239763D01*
X0178876Y0239623D01*
X0178894Y0239484D01*
X0178916Y0239345D01*
X0178941Y0239208D01*
X0178970Y0239070D01*
X0179003Y0238934D01*
X0179040Y0238799D01*
X0179081Y0238665D01*
X0179126Y0238532D01*
X0179174Y0238400D01*
X0179226Y0238270D01*
X0179281Y0238141D01*
X0179340Y0238014D01*
X0179403Y0237888D01*
X0179469Y0237764D01*
X0179538Y0237643D01*
X0179611Y0237523D01*
X0179688Y0237405D01*
X0179767Y0237290D01*
X0179850Y0237176D01*
X0179936Y0237066D01*
X0180025Y0236957D01*
X0180117Y0236851D01*
X0180212Y0236748D01*
X0180309Y0236647D01*
X0180410Y0236550D01*
X0180513Y0236455D01*
X0180619Y0236363D01*
X0180728Y0236274D01*
X0180838Y0236188D01*
X0180952Y0236105D01*
X0181067Y0236026D01*
X0181185Y0235949D01*
X0181305Y0235876D01*
X0181426Y0235807D01*
X0181550Y0235741D01*
X0181676Y0235678D01*
X0181803Y0235619D01*
X0181932Y0235564D01*
X0182062Y0235512D01*
X0182194Y0235464D01*
X0182327Y0235419D01*
X0182461Y0235378D01*
X0182596Y0235341D01*
X0182732Y0235308D01*
X0182870Y0235279D01*
X0183007Y0235254D01*
X0183146Y0235232D01*
X0183285Y0235214D01*
X0183425Y0235201D01*
X0183565Y0235191D01*
X0183705Y0235185D01*
X0183845Y0235183D01*
X0183845Y0233933D01*
X0183705Y0233931D01*
X0183565Y0233925D01*
X0183425Y0233915D01*
X0183285Y0233902D01*
X0183146Y0233884D01*
X0183007Y0233862D01*
X0182870Y0233837D01*
X0182732Y0233808D01*
X0182596Y0233775D01*
X0182461Y0233738D01*
X0182327Y0233697D01*
X0182194Y0233652D01*
X0182062Y0233604D01*
X0181932Y0233552D01*
X0181803Y0233497D01*
X0181676Y0233438D01*
X0181550Y0233375D01*
X0181426Y0233309D01*
X0181305Y0233240D01*
X0181185Y0233167D01*
X0181067Y0233090D01*
X0180952Y0233011D01*
X0180838Y0232928D01*
X0180728Y0232842D01*
X0180619Y0232753D01*
X0180513Y0232661D01*
X0180410Y0232566D01*
X0180309Y0232469D01*
X0180212Y0232368D01*
X0180117Y0232265D01*
X0180025Y0232159D01*
X0179936Y0232050D01*
X0179850Y0231940D01*
X0179767Y0231826D01*
X0179688Y0231711D01*
X0179611Y0231593D01*
X0179538Y0231473D01*
X0179469Y0231352D01*
X0179403Y0231228D01*
X0179340Y0231102D01*
X0179281Y0230975D01*
X0179226Y0230846D01*
X0179174Y0230716D01*
X0179126Y0230584D01*
X0179081Y0230451D01*
X0179040Y0230317D01*
X0179003Y0230182D01*
X0178970Y0230046D01*
X0178941Y0229908D01*
X0178916Y0229771D01*
X0178894Y0229632D01*
X0178876Y0229493D01*
X0178863Y0229353D01*
X0178853Y0229213D01*
X0178847Y0229073D01*
X0178845Y0228933D01*
X0177595Y0228933D01*
X0273845Y0233933D02*
X0273985Y0233931D01*
X0274125Y0233925D01*
X0274265Y0233915D01*
X0274405Y0233902D01*
X0274544Y0233884D01*
X0274683Y0233862D01*
X0274820Y0233837D01*
X0274958Y0233808D01*
X0275094Y0233775D01*
X0275229Y0233738D01*
X0275363Y0233697D01*
X0275496Y0233652D01*
X0275628Y0233604D01*
X0275758Y0233552D01*
X0275887Y0233497D01*
X0276014Y0233438D01*
X0276140Y0233375D01*
X0276264Y0233309D01*
X0276385Y0233240D01*
X0276505Y0233167D01*
X0276623Y0233090D01*
X0276738Y0233011D01*
X0276852Y0232928D01*
X0276962Y0232842D01*
X0277071Y0232753D01*
X0277177Y0232661D01*
X0277280Y0232566D01*
X0277381Y0232469D01*
X0277478Y0232368D01*
X0277573Y0232265D01*
X0277665Y0232159D01*
X0277754Y0232050D01*
X0277840Y0231940D01*
X0277923Y0231826D01*
X0278002Y0231711D01*
X0278079Y0231593D01*
X0278152Y0231473D01*
X0278221Y0231352D01*
X0278287Y0231228D01*
X0278350Y0231102D01*
X0278409Y0230975D01*
X0278464Y0230846D01*
X0278516Y0230716D01*
X0278564Y0230584D01*
X0278609Y0230451D01*
X0278650Y0230317D01*
X0278687Y0230182D01*
X0278720Y0230046D01*
X0278749Y0229908D01*
X0278774Y0229771D01*
X0278796Y0229632D01*
X0278814Y0229493D01*
X0278827Y0229353D01*
X0278837Y0229213D01*
X0278843Y0229073D01*
X0278845Y0228933D01*
X0280095Y0228933D01*
X0280097Y0229073D01*
X0280103Y0229213D01*
X0280113Y0229353D01*
X0280126Y0229493D01*
X0280144Y0229632D01*
X0280166Y0229771D01*
X0280191Y0229908D01*
X0280220Y0230046D01*
X0280253Y0230182D01*
X0280290Y0230317D01*
X0280331Y0230451D01*
X0280376Y0230584D01*
X0280424Y0230716D01*
X0280476Y0230846D01*
X0280531Y0230975D01*
X0280590Y0231102D01*
X0280653Y0231228D01*
X0280719Y0231352D01*
X0280788Y0231473D01*
X0280861Y0231593D01*
X0280938Y0231711D01*
X0281017Y0231826D01*
X0281100Y0231940D01*
X0281186Y0232050D01*
X0281275Y0232159D01*
X0281367Y0232265D01*
X0281462Y0232368D01*
X0281559Y0232469D01*
X0281660Y0232566D01*
X0281763Y0232661D01*
X0281869Y0232753D01*
X0281978Y0232842D01*
X0282088Y0232928D01*
X0282202Y0233011D01*
X0282317Y0233090D01*
X0282435Y0233167D01*
X0282555Y0233240D01*
X0282676Y0233309D01*
X0282800Y0233375D01*
X0282926Y0233438D01*
X0283053Y0233497D01*
X0283182Y0233552D01*
X0283312Y0233604D01*
X0283444Y0233652D01*
X0283577Y0233697D01*
X0283711Y0233738D01*
X0283846Y0233775D01*
X0283982Y0233808D01*
X0284120Y0233837D01*
X0284257Y0233862D01*
X0284396Y0233884D01*
X0284535Y0233902D01*
X0284675Y0233915D01*
X0284815Y0233925D01*
X0284955Y0233931D01*
X0285095Y0233933D01*
X0285095Y0235183D01*
X0284955Y0235185D01*
X0284815Y0235191D01*
X0284675Y0235201D01*
X0284535Y0235214D01*
X0284396Y0235232D01*
X0284257Y0235254D01*
X0284120Y0235279D01*
X0283982Y0235308D01*
X0283846Y0235341D01*
X0283711Y0235378D01*
X0283577Y0235419D01*
X0283444Y0235464D01*
X0283312Y0235512D01*
X0283182Y0235564D01*
X0283053Y0235619D01*
X0282926Y0235678D01*
X0282800Y0235741D01*
X0282676Y0235807D01*
X0282555Y0235876D01*
X0282435Y0235949D01*
X0282317Y0236026D01*
X0282202Y0236105D01*
X0282088Y0236188D01*
X0281978Y0236274D01*
X0281869Y0236363D01*
X0281763Y0236455D01*
X0281660Y0236550D01*
X0281559Y0236647D01*
X0281462Y0236748D01*
X0281367Y0236851D01*
X0281275Y0236957D01*
X0281186Y0237066D01*
X0281100Y0237176D01*
X0281017Y0237290D01*
X0280938Y0237405D01*
X0280861Y0237523D01*
X0280788Y0237643D01*
X0280719Y0237764D01*
X0280653Y0237888D01*
X0280590Y0238014D01*
X0280531Y0238141D01*
X0280476Y0238270D01*
X0280424Y0238400D01*
X0280376Y0238532D01*
X0280331Y0238665D01*
X0280290Y0238799D01*
X0280253Y0238934D01*
X0280220Y0239070D01*
X0280191Y0239208D01*
X0280166Y0239345D01*
X0280144Y0239484D01*
X0280126Y0239623D01*
X0280113Y0239763D01*
X0280103Y0239903D01*
X0280097Y0240043D01*
X0280095Y0240183D01*
X0278845Y0240183D01*
X0278843Y0240043D01*
X0278837Y0239903D01*
X0278827Y0239763D01*
X0278814Y0239623D01*
X0278796Y0239484D01*
X0278774Y0239345D01*
X0278749Y0239208D01*
X0278720Y0239070D01*
X0278687Y0238934D01*
X0278650Y0238799D01*
X0278609Y0238665D01*
X0278564Y0238532D01*
X0278516Y0238400D01*
X0278464Y0238270D01*
X0278409Y0238141D01*
X0278350Y0238014D01*
X0278287Y0237888D01*
X0278221Y0237764D01*
X0278152Y0237643D01*
X0278079Y0237523D01*
X0278002Y0237405D01*
X0277923Y0237290D01*
X0277840Y0237176D01*
X0277754Y0237066D01*
X0277665Y0236957D01*
X0277573Y0236851D01*
X0277478Y0236748D01*
X0277381Y0236647D01*
X0277280Y0236550D01*
X0277177Y0236455D01*
X0277071Y0236363D01*
X0276962Y0236274D01*
X0276852Y0236188D01*
X0276738Y0236105D01*
X0276623Y0236026D01*
X0276505Y0235949D01*
X0276385Y0235876D01*
X0276264Y0235807D01*
X0276140Y0235741D01*
X0276014Y0235678D01*
X0275887Y0235619D01*
X0275758Y0235564D01*
X0275628Y0235512D01*
X0275496Y0235464D01*
X0275363Y0235419D01*
X0275229Y0235378D01*
X0275094Y0235341D01*
X0274958Y0235308D01*
X0274820Y0235279D01*
X0274683Y0235254D01*
X0274544Y0235232D01*
X0274405Y0235214D01*
X0274265Y0235201D01*
X0274125Y0235191D01*
X0273985Y0235185D01*
X0273845Y0235183D01*
X0273845Y0233933D01*
D11*
X0269545Y0228433D03*
X0258145Y0228433D03*
X0273845Y0213933D03*
X0273845Y0203933D03*
X0273845Y0193933D03*
X0273845Y0183933D03*
X0273845Y0173933D03*
X0273845Y0163933D03*
X0273845Y0153933D03*
X0273845Y0143933D03*
X0273845Y0133933D03*
X0273845Y0123933D03*
X0263845Y0118933D03*
X0263845Y0128933D03*
X0263845Y0138933D03*
X0263845Y0148933D03*
X0263845Y0158933D03*
X0263845Y0168933D03*
X0285095Y0163933D03*
X0285095Y0153933D03*
X0285095Y0143933D03*
X0285095Y0133933D03*
X0285095Y0123933D03*
X0295095Y0118933D03*
X0295095Y0128933D03*
X0295095Y0138933D03*
X0295095Y0148933D03*
X0295095Y0158933D03*
X0295095Y0168933D03*
X0285095Y0173933D03*
X0285095Y0183933D03*
X0285095Y0193933D03*
X0285095Y0203933D03*
X0285095Y0213933D03*
X0289395Y0228433D03*
X0300795Y0228433D03*
X0295095Y0250183D03*
X0295095Y0260183D03*
X0295095Y0270183D03*
X0295095Y0280183D03*
X0285095Y0275183D03*
X0285095Y0265183D03*
X0273845Y0265183D03*
X0273845Y0275183D03*
X0263845Y0270183D03*
X0263845Y0260183D03*
X0263845Y0250183D03*
X0263845Y0280183D03*
X0273845Y0285183D03*
X0273845Y0295183D03*
X0273845Y0305183D03*
X0273845Y0315183D03*
X0273845Y0325183D03*
X0273845Y0335183D03*
X0273845Y0345183D03*
X0273845Y0355183D03*
X0273845Y0365183D03*
X0273845Y0375183D03*
X0273845Y0385183D03*
X0273845Y0395183D03*
X0273845Y0405183D03*
X0285095Y0405183D03*
X0285095Y0395183D03*
X0285095Y0385183D03*
X0285095Y0375183D03*
X0285095Y0365183D03*
X0285095Y0355183D03*
X0285095Y0345183D03*
X0285095Y0335183D03*
X0285095Y0325183D03*
X0285095Y0315183D03*
X0285095Y0305183D03*
X0285095Y0295183D03*
X0285095Y0285183D03*
X0295095Y0290183D03*
X0295095Y0300183D03*
X0295095Y0310183D03*
X0295095Y0320183D03*
X0295095Y0330183D03*
X0295095Y0340183D03*
X0295095Y0350183D03*
X0295095Y0360183D03*
X0263845Y0360183D03*
X0263845Y0350183D03*
X0263845Y0340183D03*
X0263845Y0330183D03*
X0263845Y0320183D03*
X0263845Y0310183D03*
X0263845Y0300183D03*
X0263845Y0290183D03*
X0199545Y0228433D03*
X0188145Y0228433D03*
X0183845Y0213933D03*
X0172595Y0213933D03*
X0172595Y0203933D03*
X0172595Y0193933D03*
X0172595Y0183933D03*
X0172595Y0173933D03*
X0172595Y0163933D03*
X0172595Y0153933D03*
X0172595Y0143933D03*
X0172595Y0133933D03*
X0172595Y0123933D03*
X0183845Y0123933D03*
X0183845Y0133933D03*
X0183845Y0143933D03*
X0183845Y0153933D03*
X0183845Y0163933D03*
X0183845Y0173933D03*
X0183845Y0183933D03*
X0183845Y0193933D03*
X0183845Y0203933D03*
X0168295Y0228433D03*
X0156895Y0228433D03*
X0162595Y0250183D03*
X0162595Y0260183D03*
X0162595Y0270183D03*
X0162595Y0280183D03*
X0162595Y0290183D03*
X0162595Y0300183D03*
X0162595Y0310183D03*
X0162595Y0320183D03*
X0162595Y0330183D03*
X0162595Y0340183D03*
X0162595Y0350183D03*
X0162595Y0360183D03*
X0172595Y0355183D03*
X0172595Y0345183D03*
X0172595Y0335183D03*
X0172595Y0325183D03*
X0172595Y0315183D03*
X0172595Y0305183D03*
X0172595Y0295183D03*
X0172595Y0285183D03*
X0183845Y0285183D03*
X0183845Y0295183D03*
X0183845Y0305183D03*
X0183845Y0315183D03*
X0183845Y0325183D03*
X0183845Y0335183D03*
X0183845Y0345183D03*
X0183845Y0355183D03*
X0183845Y0365183D03*
X0183845Y0375183D03*
X0172595Y0375183D03*
X0172595Y0365183D03*
X0172595Y0385183D03*
X0172595Y0395183D03*
X0172595Y0405183D03*
X0183845Y0405183D03*
X0183845Y0395183D03*
X0183845Y0385183D03*
X0193845Y0360183D03*
X0193845Y0350183D03*
X0193845Y0340183D03*
X0193845Y0330183D03*
X0193845Y0320183D03*
X0193845Y0310183D03*
X0193845Y0300183D03*
X0193845Y0290183D03*
X0193845Y0280183D03*
X0193845Y0270183D03*
X0193845Y0260183D03*
X0193845Y0250183D03*
X0183845Y0265183D03*
X0183845Y0275183D03*
X0172595Y0275183D03*
X0172595Y0265183D03*
X0098295Y0228433D03*
X0086895Y0228433D03*
X0082595Y0213933D03*
X0082595Y0203933D03*
X0082595Y0193933D03*
X0082595Y0183933D03*
X0082595Y0173933D03*
X0082595Y0163933D03*
X0082595Y0153933D03*
X0082595Y0143933D03*
X0082595Y0133933D03*
X0082595Y0123933D03*
X0092595Y0118933D03*
X0092595Y0128933D03*
X0092595Y0138933D03*
X0092595Y0148933D03*
X0092595Y0158933D03*
X0092595Y0168933D03*
X0082595Y0113933D03*
X0082595Y0103933D03*
X0082595Y0093933D03*
X0082595Y0083933D03*
X0082595Y0073933D03*
X0092595Y0068933D03*
X0092595Y0058933D03*
X0092595Y0078933D03*
X0092595Y0088933D03*
X0092595Y0098933D03*
X0092595Y0108933D03*
X0162595Y0108933D03*
X0162595Y0098933D03*
X0162595Y0088933D03*
X0162595Y0078933D03*
X0162595Y0068933D03*
X0162595Y0058933D03*
X0172595Y0073933D03*
X0172595Y0083933D03*
X0172595Y0093933D03*
X0172595Y0103933D03*
X0172595Y0113933D03*
X0183845Y0113933D03*
X0183845Y0103933D03*
X0183845Y0093933D03*
X0183845Y0083933D03*
X0183845Y0073933D03*
X0193845Y0068933D03*
X0193845Y0058933D03*
X0193845Y0078933D03*
X0193845Y0088933D03*
X0193845Y0098933D03*
X0193845Y0108933D03*
X0193845Y0118933D03*
X0193845Y0128933D03*
X0193845Y0138933D03*
X0193845Y0148933D03*
X0193845Y0158933D03*
X0193845Y0168933D03*
X0162595Y0168933D03*
X0162595Y0158933D03*
X0162595Y0148933D03*
X0162595Y0138933D03*
X0162595Y0128933D03*
X0162595Y0118933D03*
X0263845Y0108933D03*
X0263845Y0098933D03*
X0263845Y0088933D03*
X0263845Y0078933D03*
X0263845Y0068933D03*
X0263845Y0058933D03*
X0273845Y0073933D03*
X0273845Y0083933D03*
X0273845Y0093933D03*
X0273845Y0103933D03*
X0273845Y0113933D03*
X0285095Y0113933D03*
X0285095Y0103933D03*
X0285095Y0093933D03*
X0285095Y0083933D03*
X0285095Y0073933D03*
X0295095Y0068933D03*
X0295095Y0058933D03*
X0295095Y0078933D03*
X0295095Y0088933D03*
X0295095Y0098933D03*
X0295095Y0108933D03*
X0365095Y0108933D03*
X0365095Y0098933D03*
X0365095Y0088933D03*
X0365095Y0078933D03*
X0365095Y0068933D03*
X0365095Y0058933D03*
X0375095Y0073933D03*
X0375095Y0083933D03*
X0375095Y0093933D03*
X0375095Y0103933D03*
X0375095Y0113933D03*
X0365095Y0118933D03*
X0365095Y0128933D03*
X0365095Y0138933D03*
X0365095Y0148933D03*
X0365095Y0158933D03*
X0365095Y0168933D03*
X0375095Y0163933D03*
X0375095Y0153933D03*
X0375095Y0143933D03*
X0375095Y0133933D03*
X0375095Y0123933D03*
X0375095Y0173933D03*
X0375095Y0183933D03*
X0375095Y0193933D03*
X0375095Y0203933D03*
X0375095Y0213933D03*
X0370795Y0228433D03*
X0359395Y0228433D03*
X0365095Y0250183D03*
X0365095Y0260183D03*
X0365095Y0270183D03*
X0365095Y0280183D03*
X0375095Y0275183D03*
X0375095Y0265183D03*
X0375095Y0285183D03*
X0375095Y0295183D03*
X0375095Y0305183D03*
X0375095Y0315183D03*
X0375095Y0325183D03*
X0375095Y0335183D03*
X0375095Y0345183D03*
X0375095Y0355183D03*
X0375095Y0365183D03*
X0375095Y0375183D03*
X0375095Y0385183D03*
X0375095Y0395183D03*
X0375095Y0405183D03*
X0370795Y0419683D03*
X0359395Y0419683D03*
X0300795Y0419683D03*
X0289395Y0419683D03*
X0269545Y0419683D03*
X0258145Y0419683D03*
X0199545Y0419683D03*
X0188145Y0419683D03*
X0168295Y0419683D03*
X0156895Y0419683D03*
X0098295Y0419683D03*
X0086895Y0419683D03*
X0082595Y0405183D03*
X0082595Y0395183D03*
X0082595Y0385183D03*
X0082595Y0375183D03*
X0082595Y0365183D03*
X0082595Y0355183D03*
X0082595Y0345183D03*
X0082595Y0335183D03*
X0082595Y0325183D03*
X0082595Y0315183D03*
X0082595Y0305183D03*
X0082595Y0295183D03*
X0082595Y0285183D03*
X0092595Y0280183D03*
X0092595Y0270183D03*
X0092595Y0260183D03*
X0092595Y0250183D03*
X0082595Y0265183D03*
X0082595Y0275183D03*
X0092595Y0290183D03*
X0092595Y0300183D03*
X0092595Y0310183D03*
X0092595Y0320183D03*
X0092595Y0330183D03*
X0092595Y0340183D03*
X0092595Y0350183D03*
X0092595Y0360183D03*
X0365095Y0360183D03*
X0365095Y0350183D03*
X0365095Y0340183D03*
X0365095Y0330183D03*
X0365095Y0320183D03*
X0365095Y0310183D03*
X0365095Y0300183D03*
X0365095Y0290183D03*
D12*
X0340095Y0202933D03*
X0336595Y0194933D03*
X0343595Y0194933D03*
X0323595Y0194933D03*
X0320095Y0202933D03*
X0316595Y0194933D03*
X0242345Y0194933D03*
X0238845Y0202933D03*
X0235345Y0194933D03*
X0222345Y0194933D03*
X0215345Y0194933D03*
X0218845Y0202933D03*
X0141095Y0194933D03*
X0134095Y0194933D03*
X0137595Y0202933D03*
X0121095Y0194933D03*
X0117595Y0202933D03*
X0114095Y0194933D03*
X0114095Y0386183D03*
X0117595Y0394183D03*
X0121095Y0386183D03*
X0134095Y0386183D03*
X0141095Y0386183D03*
X0137595Y0394183D03*
X0215345Y0386183D03*
X0222345Y0386183D03*
X0218845Y0394183D03*
X0235345Y0386183D03*
X0238845Y0394183D03*
X0242345Y0386183D03*
X0316595Y0386183D03*
X0320095Y0394183D03*
X0323595Y0386183D03*
X0336595Y0386183D03*
X0340095Y0394183D03*
X0343595Y0386183D03*
D13*
X0302779Y0384914D02*
X0302779Y0387578D01*
X0307411Y0387578D01*
X0307411Y0384914D01*
X0302779Y0384914D01*
X0302779Y0385800D02*
X0307411Y0385800D01*
X0307411Y0386686D02*
X0302779Y0386686D01*
X0302779Y0387572D02*
X0307411Y0387572D01*
X0302779Y0392788D02*
X0302779Y0395452D01*
X0307411Y0395452D01*
X0307411Y0392788D01*
X0302779Y0392788D01*
X0302779Y0393674D02*
X0307411Y0393674D01*
X0307411Y0394560D02*
X0302779Y0394560D01*
X0302779Y0395446D02*
X0307411Y0395446D01*
X0201529Y0395452D02*
X0201529Y0392788D01*
X0201529Y0395452D02*
X0206161Y0395452D01*
X0206161Y0392788D01*
X0201529Y0392788D01*
X0201529Y0393674D02*
X0206161Y0393674D01*
X0206161Y0394560D02*
X0201529Y0394560D01*
X0201529Y0395446D02*
X0206161Y0395446D01*
X0201529Y0387578D02*
X0201529Y0384914D01*
X0201529Y0387578D02*
X0206161Y0387578D01*
X0206161Y0384914D01*
X0201529Y0384914D01*
X0201529Y0385800D02*
X0206161Y0385800D01*
X0206161Y0386686D02*
X0201529Y0386686D01*
X0201529Y0387572D02*
X0206161Y0387572D01*
X0100279Y0387578D02*
X0100279Y0384914D01*
X0100279Y0387578D02*
X0104911Y0387578D01*
X0104911Y0384914D01*
X0100279Y0384914D01*
X0100279Y0385800D02*
X0104911Y0385800D01*
X0104911Y0386686D02*
X0100279Y0386686D01*
X0100279Y0387572D02*
X0104911Y0387572D01*
X0100279Y0392788D02*
X0100279Y0395452D01*
X0104911Y0395452D01*
X0104911Y0392788D01*
X0100279Y0392788D01*
X0100279Y0393674D02*
X0104911Y0393674D01*
X0104911Y0394560D02*
X0100279Y0394560D01*
X0100279Y0395446D02*
X0104911Y0395446D01*
X0100279Y0204202D02*
X0100279Y0201538D01*
X0100279Y0204202D02*
X0104911Y0204202D01*
X0104911Y0201538D01*
X0100279Y0201538D01*
X0100279Y0202424D02*
X0104911Y0202424D01*
X0104911Y0203310D02*
X0100279Y0203310D01*
X0100279Y0204196D02*
X0104911Y0204196D01*
X0100279Y0196328D02*
X0100279Y0193664D01*
X0100279Y0196328D02*
X0104911Y0196328D01*
X0104911Y0193664D01*
X0100279Y0193664D01*
X0100279Y0194550D02*
X0104911Y0194550D01*
X0104911Y0195436D02*
X0100279Y0195436D01*
X0100279Y0196322D02*
X0104911Y0196322D01*
X0201529Y0196328D02*
X0201529Y0193664D01*
X0201529Y0196328D02*
X0206161Y0196328D01*
X0206161Y0193664D01*
X0201529Y0193664D01*
X0201529Y0194550D02*
X0206161Y0194550D01*
X0206161Y0195436D02*
X0201529Y0195436D01*
X0201529Y0196322D02*
X0206161Y0196322D01*
X0201529Y0201538D02*
X0201529Y0204202D01*
X0206161Y0204202D01*
X0206161Y0201538D01*
X0201529Y0201538D01*
X0201529Y0202424D02*
X0206161Y0202424D01*
X0206161Y0203310D02*
X0201529Y0203310D01*
X0201529Y0204196D02*
X0206161Y0204196D01*
X0302779Y0204202D02*
X0302779Y0201538D01*
X0302779Y0204202D02*
X0307411Y0204202D01*
X0307411Y0201538D01*
X0302779Y0201538D01*
X0302779Y0202424D02*
X0307411Y0202424D01*
X0307411Y0203310D02*
X0302779Y0203310D01*
X0302779Y0204196D02*
X0307411Y0204196D01*
X0302779Y0196328D02*
X0302779Y0193664D01*
X0302779Y0196328D02*
X0307411Y0196328D01*
X0307411Y0193664D01*
X0302779Y0193664D01*
X0302779Y0194550D02*
X0307411Y0194550D01*
X0307411Y0195436D02*
X0302779Y0195436D01*
X0302779Y0196322D02*
X0307411Y0196322D01*
M02*
